
<svg width="466px" height="315px" viewBox="0 0 466 315" version="1.1" xmlns="http://www.w3.org/2000/svg" xmlns:xlink="http://www.w3.org/1999/xlink">
    <g id="Page-1" stroke="none" stroke-width="1" fill="none" fill-rule="evenodd">
        <g id="Icon" fill="#000000">
            <g id="qr-code">
                <rect id="Rectangle" x="48" y="33" width="139" height="16"></rect>
                <g id="Group">
                    <path d="M223.302438,161.047137 C216.974872,153.132339 207.653172,147.324315 195.458938,143.669637 L195.458938,25.4032258 C195.458938,11.3958871 184.014726,0 169.947989,0 L64.6991679,0 C50.6324307,0 39.188219,11.3958871 39.188219,25.4032258 L39.188219,127.137218 L32.1335912,127.137218 C18.066854,127.137218 6.62264234,138.533105 6.62264234,152.540444 L6.62264234,153.669194 C6.62264234,158.62621 8.06060949,163.252137 10.5368723,167.165927 C4.29519343,171.801169 0.244905109,179.207903 0.244905109,187.540161 L0.244905109,188.668911 C0.244905109,197.001169 4.29519343,204.407903 10.5368723,209.043992 C8.06145985,212.956935 6.62264234,217.58371 6.62264234,222.539879 L6.62264234,223.668629 C6.62264234,237.675968 18.066854,249.071855 32.1335912,249.071855 L39.2120292,249.071855 C39.575135,258.920685 45.5923175,267.351169 54.1223285,271.237863 C54.9140182,280.131532 57.595219,296.799435 66.6805182,309.797419 C68.3327774,312.161613 70.9782628,313.428387 73.6671168,313.428387 C75.3440365,313.428387 77.0371131,312.935565 78.5175985,311.910121 C82.3723029,309.238548 83.3221606,303.960605 80.6392591,300.122177 C74.8584781,291.851734 72.4740547,280.978306 71.4893321,273.533468 L141.801759,273.533468 C142.033058,273.884032 142.265208,274.226129 142.494807,274.558065 C145.166653,278.403266 150.464427,279.366895 154.325934,276.70379 C158.188292,274.043226 159.153456,268.768669 156.481609,264.922621 C146.346109,250.333548 149.009453,234.536976 164.628956,216.646331 C167.237026,214.400685 175.094398,206.711976 174.1675,196.295806 C173.463398,188.384395 168.122255,181.736371 158.292036,176.534637 C157.999511,176.379677 157.698482,176.2425 157.389799,176.123105 C156.993529,175.968992 147.693088,172.245726 149.106394,162.823669 C149.962712,157.118952 161.664584,155.818306 169.316168,156.332298 C189.007219,157.660887 203.073956,162.939677 209.994226,171.59625 C214.885526,177.714194 216.462953,185.672177 214.818347,195.926613 C214.467146,198.115524 214.117646,200.364556 213.759642,202.666089 C208.864942,234.161008 202.773777,273.357339 171.351942,299.758065 C167.762551,302.773427 167.307606,308.115726 170.336606,311.690806 C172.019478,313.675645 174.420909,314.697702 176.840197,314.697702 C178.776478,314.697702 180.723814,314.043145 182.319949,312.701008 C218.606723,282.212903 225.52019,237.733548 230.567106,205.255524 C230.920007,202.982782 231.265255,200.76 231.612204,198.597339 C234.022139,183.591653 231.225288,170.957782 223.302438,161.047137 Z M25.755854,197.136653 C21.0669416,197.136653 17.2522044,193.338024 17.2522044,188.668911 L17.2522044,187.540161 C17.2522044,182.871048 21.0669416,179.072419 25.755854,179.072419 L32.1335912,179.072419 L38.5113285,179.072419 L38.5113285,197.136653 L32.1335912,197.136653 L25.755854,197.136653 Z M23.6299416,152.540444 C23.6299416,147.871331 27.4446788,144.072702 32.1335912,144.072702 L38.5113285,144.072702 L38.5113285,162.136935 L32.1335912,162.136935 C27.4446788,162.136935 23.6299416,158.338306 23.6299416,153.669194 L23.6299416,152.540444 Z M38.5113285,232.136371 L32.1335912,232.136371 C27.4446788,232.136371 23.6299416,228.337742 23.6299416,223.668629 L23.6299416,222.539879 C23.6299416,217.870766 27.4446788,214.072137 32.1335912,214.072137 L38.5113285,214.072137 L38.5113285,232.136371 Z M64.6991679,256.597137 C60.0102555,256.597137 56.1955182,252.798508 56.1955182,248.129395 L56.1955182,241.125726 L133.967347,241.125726 C133.243686,246.772016 133.595737,251.953427 134.588964,256.597137 L64.6991679,256.597137 Z M132.287876,160.320605 C129.631336,178.023266 142.855361,188.41996 150.677018,191.685121 C155.303854,194.198347 157.098124,196.466855 157.225679,197.771734 C157.404255,199.592298 155.054697,202.584798 153.418595,203.911694 C153.008719,204.231774 152.628606,204.589113 152.283358,204.979476 C146.341858,211.699476 142.094285,218.121411 139.160526,224.191089 L56.1955182,224.191089 L56.1955182,25.4032258 C56.1955182,20.7341129 60.0102555,16.9354839 64.6991679,16.9354839 L169.947989,16.9354839 C174.636901,16.9354839 178.451639,20.7341129 178.451639,25.4032258 L178.451639,140.208024 C175.873332,139.885403 173.221894,139.620363 170.467562,139.434073 C149.07323,137.999637 134.437599,145.994879 132.287876,160.320605 Z" id="Shape" fill-rule="nonzero"></path>
                    <path d="M110.657142,70.4236694 L90.1973613,70.4236694 C87.8495036,70.4236694 85.9455365,72.31875 85.9455365,74.6575403 L85.9455365,95.0317742 C85.9455365,97.3705645 87.8495036,99.2656452 90.1973613,99.2656452 L110.657142,99.2656452 C113.005,99.2656452 114.908967,97.3705645 114.908967,95.0317742 L114.908967,74.6575403 C114.908967,72.31875 113.005,70.4236694 110.657142,70.4236694 Z" id="Path"></path>
                    <path d="M105.12977,120.970161 L94.4491861,120.970161 L94.4491861,110.758065 C94.4491861,108.419274 92.545219,106.524194 90.1973613,106.524194 C87.8495036,106.524194 85.9455365,108.419274 85.9455365,110.758065 L85.9455365,125.204879 C85.9455365,127.543669 87.8495036,129.43875 90.1973613,129.43875 L105.12977,129.43875 C107.477628,129.43875 109.381595,127.543669 109.381595,125.204879 C109.381595,122.866089 107.477628,120.970161 105.12977,120.970161 Z" id="Path"></path>
                    <path d="M142.493956,70.4236694 L122.034175,70.4236694 C119.686318,70.4236694 117.78235,72.31875 117.78235,74.6575403 L117.78235,95.0317742 C117.78235,97.3705645 119.686318,99.2656452 122.034175,99.2656452 L142.493956,99.2656452 C144.841814,99.2656452 146.745781,97.3705645 146.745781,95.0317742 L146.745781,74.6575403 C146.745781,72.31875 144.842664,70.4236694 142.493956,70.4236694 Z M138.242131,90.7979032 L126.286,90.7979032 L126.286,78.8914113 L138.242131,78.8914113 L138.242131,90.7979032 Z" id="Shape" fill-rule="nonzero"></path>
                    <path d="M138.328018,106.639355 L126.202664,106.639355 C123.854807,106.639355 121.950839,108.534435 121.950839,110.873226 L121.950839,122.945685 C121.950839,125.284476 123.854807,127.179556 126.202664,127.179556 L138.328018,127.179556 C140.675876,127.179556 142.579843,125.284476 142.579843,122.945685 L142.579843,110.873226 C142.579843,108.534435 140.675876,106.639355 138.328018,106.639355 Z" id="Path"></path>
                </g>
            </g>
            <g id="link" transform="translate(253.000000, 58.000000)">
                <path d="M112.814468,84.4071178 C110.471534,86.7506066 110.471534,90.5090321 112.814468,92.8525209 C122.495646,102.535994 122.495646,118.277164 112.814468,127.960636 L61.9772271,178.809922 C52.2960482,188.493394 36.5586068,188.493394 26.877428,178.809922 L19.2297388,171.160421 C9.54855995,161.476948 9.54855995,145.735778 19.2297388,136.052305 L70.0669792,85.2030197 C72.4099129,82.8595309 72.4099129,79.1011054 70.0669792,76.7576166 C67.7240455,74.4141278 63.9665104,74.4141278 61.6235767,76.7576166 L10.7863362,127.606902 C3.84594776,134.548935 0,143.79024 0,153.606363 C0,163.422486 3.80174146,172.663791 10.7863362,179.605824 L18.4340255,187.255325 C25.5954454,194.418442 35.0113865,198 44.4273275,198 C53.8432686,198 63.2592096,194.418442 70.4206296,187.255325 L121.25787,136.406039 C135.58071,122.079806 135.58071,98.7333513 121.25787,84.4071178 C118.959143,82.063629 115.157401,82.063629 112.814468,84.4071178 Z" id="Path"></path>
                <path d="M202.254271,18.3925234 L194.60402,10.7437096 C180.276382,-3.58123652 156.927638,-3.58123652 142.6,10.7437096 L91.7457286,61.5884256 C77.4180905,75.9133717 77.4180905,99.2577283 91.7457286,113.582674 C94.0894472,115.925953 97.8482412,115.925953 100.19196,113.582674 C102.535678,111.239396 102.535678,107.481308 100.19196,105.13803 C90.5075377,95.4554277 90.5075377,79.7156722 100.19196,70.0330697 L151.046231,19.1883537 C160.730653,9.50575126 176.473367,9.50575126 186.157789,19.1883537 L193.80804,26.8371675 C203.492462,36.5197699 203.492462,52.2595255 193.80804,61.942128 L142.953769,112.786844 C140.61005,115.130122 140.61005,118.88821 142.953769,121.231488 C144.103518,122.381021 145.651256,123 147.154774,123 C148.658291,123 150.20603,122.425234 151.355779,121.231488 L202.21005,70.3867721 C209.152764,63.445363 213,54.2048886 213,44.3896477 C213,34.5744069 209.196985,25.3339324 202.254271,18.3925234 Z" id="Path"></path>
            </g>
        </g>
    </g>
</svg>