<?xml version="1.0" encoding="iso-8859-1"?>
<!-- Generator: Adobe Illustrator 19.0.0, SVG Export Plug-In . SVG Version: 6.00 Build 0)  -->
<svg version="1.1" id="Capa_1" xmlns="http://www.w3.org/2000/svg" xmlns:xlink="http://www.w3.org/1999/xlink" x="0px" y="0px"
	 viewBox="0 0 480 480" style="enable-background:new 0 0 480 480;" xml:space="preserve">
<g>
	<g>
		<rect x="212" y="32" width="16" height="16"/>
	</g>
</g>
<g>
	<g>
		<rect x="244" y="32" width="16" height="16"/>
	</g>
</g>
<g>
	<g>
		<rect x="228" y="432" width="16" height="16"/>
	</g>
</g>
<g>
	<g>
		<rect x="52" y="232" width="16" height="16"/>
	</g>
</g>
<g>
	<g>
		<rect x="308" y="144" width="16" height="16"/>
	</g>
</g>
<g>
	<g>
		<rect x="300" y="176" width="136" height="16"/>
	</g>
</g>
<g>
	<g>
		<rect x="300" y="208" width="120" height="16"/>
	</g>
</g>
<g>
	<g>
		<rect x="348" y="144" width="88" height="16"/>
	</g>
</g>
<g>
	<g>
		<path d="M468,112h-80V32c0-17.673-14.327-32-32-32H116C98.327,0,84,14.327,84,32v168H12c-4.418,0-8,3.582-8,8v128
			c0,4.418,3.582,8,8,8h72v104c0,17.673,14.327,32,32,32h240c17.673,0,32-14.327,32-32V275.312L407.312,256H468c4.418,0,8-3.582,8-8
			V120C476,115.582,472.418,112,468,112z M100,32c0-8.837,7.163-16,16-16h240c8.837,0,16,7.163,16,16v32H100V32z M20,328V216h184
			v112h-40c-2.122,0-4.156,0.844-5.656,2.344L140,348.688l-18.344-18.344c-1.5-1.5-3.534-2.344-5.656-2.344H20z M372,448
			c0,8.837-7.163,16-16,16H116c-8.837,0-16-7.163-16-16v-32h272V448z M372,400H100v-56h12.688l21.656,21.656
			c3.124,3.123,8.188,3.123,11.312,0L167.312,344H212c4.418,0,8-3.582,8-8V208c0-4.418-3.582-8-8-8H100V80h272v32H268
			c-4.418,0-8,3.582-8,8v128c0,4.418,3.582,8,8,8h84.688L372,275.312V400z M460,240h-56c-2.122,0-4.156,0.844-5.656,2.344
			L380,260.688l-18.344-18.344c-1.5-1.5-3.534-2.344-5.656-2.344h-80V128h184V240z"/>
	</g>
</g>
<g>
	<g>
		<rect x="44" y="264" width="136" height="16"/>
	</g>
</g>
<g>
	<g>
		<rect x="44" y="296" width="120" height="16"/>
	</g>
</g>
<g>
	<g>
		<rect x="84" y="232" width="96" height="16"/>
	</g>
</g>
<g>
</g>
<g>
</g>
<g>
</g>
<g>
</g>
<g>
</g>
<g>
</g>
<g>
</g>
<g>
</g>
<g>
</g>
<g>
</g>
<g>
</g>
<g>
</g>
<g>
</g>
<g>
</g>
<g>
</g>
</svg>
